<svg width="100" height="100" viewBox="0 0 24 24" fill="#bbbbbb" xmlns="http://www.w3.org/2000/svg">
  <path d="M12 2C6.48 2 2 6.48 2 12c0 4.32 2.74 7.94 6.6 9.28-.08-.66-.16-1.68.02-2.4.18-.66 1.2-4.2 1.2-4.2s-.3-.6-.3-1.48c0-1.38.8-2.4 1.8-2.4.84 0 1.26.62 1.26 1.36 0 .82-.52 2.04-.8 3.16-.24.98.5 1.78 1.48 1.78 1.78 0 3.16-1.86 3.16-4.52 0-2.36-1.7-4.02-4.12-4.02-2.8 0-4.44 2.1-4.44 4.26 0 .84.3 1.74.68 2.24.08.1.1.18.08.28-.08.3-.28.98-.32 1.1-.06.1-.1.12-.2.08-.76-.36-1.24-1.48-1.24-2.38 0-1.94 1.42-3.72 4.12-3.72 2.14 0 3.8 1.52 3.8 3.56 0 2.18-1.28 3.84-3.22 3.84-.62 0-1.22-.32-1.42-.68 0 0-.34 1.34-.42 1.62-.14.52-.52 1.18-.78 1.58C9.42 20.64 10.68 21 12 21c5.52 0 10-4.48 10-10S17.52 2 12 2z"/>
</svg>